<mxfile host="app.diagrams.net" modified="2021-03-02T19:11:46.140Z" agent="5.0 (Windows NT 10.0; WOW64) AppleWebKit/537.36 (KHTML, like Gecko) Chrome/88.0.4324.111 YaBrowser/21.2.1.108 Yowser/2.5 Safari/537.36" etag="04Un8wdwRed9he2J-0dJ" version="14.4.3" type="github">
  <diagram id="C5RBs43oDa-KdzZeNtuy" name="Page-1">
    <mxGraphModel dx="723" dy="406" grid="1" gridSize="10" guides="1" tooltips="1" connect="1" arrows="1" fold="1" page="1" pageScale="1" pageWidth="827" pageHeight="1169" math="0" shadow="0">
      <root>
        <mxCell id="WIyWlLk6GJQsqaUBKTNV-0" />
        <mxCell id="WIyWlLk6GJQsqaUBKTNV-1" parent="WIyWlLk6GJQsqaUBKTNV-0" />
        <mxCell id="gcIj5Uc6wEE0DNO7ib5h-1" value="Costumer" style="shape=table;html=1;whiteSpace=wrap;startSize=20;container=1;collapsible=0;childLayout=tableLayout;fixedRows=1;rowLines=0;fontStyle=1;align=center;" vertex="1" parent="WIyWlLk6GJQsqaUBKTNV-1">
          <mxGeometry x="150" y="50" width="160" height="330" as="geometry" />
        </mxCell>
        <mxCell id="gcIj5Uc6wEE0DNO7ib5h-2" value="" style="shape=partialRectangle;html=1;whiteSpace=wrap;collapsible=0;dropTarget=0;pointerEvents=0;fillColor=none;top=0;left=0;bottom=1;right=0;points=[[0,0.5],[1,0.5]];portConstraint=eastwest;" vertex="1" parent="gcIj5Uc6wEE0DNO7ib5h-1">
          <mxGeometry y="20" width="160" height="30" as="geometry" />
        </mxCell>
        <mxCell id="gcIj5Uc6wEE0DNO7ib5h-3" value="" style="shape=partialRectangle;html=1;whiteSpace=wrap;connectable=0;fillColor=none;top=0;left=0;bottom=0;right=0;overflow=hidden;" vertex="1" parent="gcIj5Uc6wEE0DNO7ib5h-2">
          <mxGeometry width="28" height="30" as="geometry" />
        </mxCell>
        <mxCell id="gcIj5Uc6wEE0DNO7ib5h-4" value="cost_name" style="shape=partialRectangle;html=1;whiteSpace=wrap;connectable=0;fillColor=none;top=0;left=0;bottom=0;right=0;align=left;spacingLeft=6;overflow=hidden;" vertex="1" parent="gcIj5Uc6wEE0DNO7ib5h-2">
          <mxGeometry x="28" width="132" height="30" as="geometry" />
        </mxCell>
        <mxCell id="gcIj5Uc6wEE0DNO7ib5h-5" value="" style="shape=partialRectangle;html=1;whiteSpace=wrap;collapsible=0;dropTarget=0;pointerEvents=0;fillColor=none;top=0;left=0;bottom=0;right=0;points=[[0,0.5],[1,0.5]];portConstraint=eastwest;" vertex="1" parent="gcIj5Uc6wEE0DNO7ib5h-1">
          <mxGeometry y="50" width="160" height="30" as="geometry" />
        </mxCell>
        <mxCell id="gcIj5Uc6wEE0DNO7ib5h-6" value="" style="shape=partialRectangle;html=1;whiteSpace=wrap;connectable=0;fillColor=none;top=0;left=0;bottom=0;right=0;overflow=hidden;" vertex="1" parent="gcIj5Uc6wEE0DNO7ib5h-5">
          <mxGeometry width="28" height="30" as="geometry" />
        </mxCell>
        <mxCell id="gcIj5Uc6wEE0DNO7ib5h-7" value="cost_id" style="shape=partialRectangle;html=1;whiteSpace=wrap;connectable=0;fillColor=none;top=0;left=0;bottom=0;right=0;align=left;spacingLeft=6;overflow=hidden;" vertex="1" parent="gcIj5Uc6wEE0DNO7ib5h-5">
          <mxGeometry x="28" width="132" height="30" as="geometry" />
        </mxCell>
        <mxCell id="gcIj5Uc6wEE0DNO7ib5h-8" value="" style="shape=partialRectangle;html=1;whiteSpace=wrap;collapsible=0;dropTarget=0;pointerEvents=0;fillColor=none;top=0;left=0;bottom=0;right=0;points=[[0,0.5],[1,0.5]];portConstraint=eastwest;" vertex="1" parent="gcIj5Uc6wEE0DNO7ib5h-1">
          <mxGeometry y="80" width="160" height="30" as="geometry" />
        </mxCell>
        <mxCell id="gcIj5Uc6wEE0DNO7ib5h-9" value="" style="shape=partialRectangle;html=1;whiteSpace=wrap;connectable=0;fillColor=none;top=0;left=0;bottom=0;right=0;overflow=hidden;" vertex="1" parent="gcIj5Uc6wEE0DNO7ib5h-8">
          <mxGeometry width="28" height="30" as="geometry" />
        </mxCell>
        <mxCell id="gcIj5Uc6wEE0DNO7ib5h-10" value="date_of_birth" style="shape=partialRectangle;html=1;whiteSpace=wrap;connectable=0;fillColor=none;top=0;left=0;bottom=0;right=0;align=left;spacingLeft=6;overflow=hidden;" vertex="1" parent="gcIj5Uc6wEE0DNO7ib5h-8">
          <mxGeometry x="28" width="132" height="30" as="geometry" />
        </mxCell>
        <mxCell id="gcIj5Uc6wEE0DNO7ib5h-29" value="" style="shape=partialRectangle;html=1;whiteSpace=wrap;collapsible=0;dropTarget=0;pointerEvents=0;fillColor=none;top=0;left=0;bottom=0;right=0;points=[[0,0.5],[1,0.5]];portConstraint=eastwest;" vertex="1" parent="gcIj5Uc6wEE0DNO7ib5h-1">
          <mxGeometry y="110" width="160" height="30" as="geometry" />
        </mxCell>
        <mxCell id="gcIj5Uc6wEE0DNO7ib5h-30" value="" style="shape=partialRectangle;html=1;whiteSpace=wrap;connectable=0;fillColor=none;top=0;left=0;bottom=0;right=0;overflow=hidden;" vertex="1" parent="gcIj5Uc6wEE0DNO7ib5h-29">
          <mxGeometry width="28" height="30" as="geometry" />
        </mxCell>
        <mxCell id="gcIj5Uc6wEE0DNO7ib5h-31" value="gender" style="shape=partialRectangle;html=1;whiteSpace=wrap;connectable=0;fillColor=none;top=0;left=0;bottom=0;right=0;align=left;spacingLeft=6;overflow=hidden;" vertex="1" parent="gcIj5Uc6wEE0DNO7ib5h-29">
          <mxGeometry x="28" width="132" height="30" as="geometry" />
        </mxCell>
        <mxCell id="gcIj5Uc6wEE0DNO7ib5h-32" value="" style="shape=partialRectangle;html=1;whiteSpace=wrap;collapsible=0;dropTarget=0;pointerEvents=0;fillColor=none;top=0;left=0;bottom=0;right=0;points=[[0,0.5],[1,0.5]];portConstraint=eastwest;" vertex="1" parent="gcIj5Uc6wEE0DNO7ib5h-1">
          <mxGeometry y="140" width="160" height="30" as="geometry" />
        </mxCell>
        <mxCell id="gcIj5Uc6wEE0DNO7ib5h-33" value="" style="shape=partialRectangle;html=1;whiteSpace=wrap;connectable=0;fillColor=none;top=0;left=0;bottom=0;right=0;overflow=hidden;" vertex="1" parent="gcIj5Uc6wEE0DNO7ib5h-32">
          <mxGeometry width="28" height="30" as="geometry" />
        </mxCell>
        <mxCell id="gcIj5Uc6wEE0DNO7ib5h-34" value="phone_number" style="shape=partialRectangle;html=1;whiteSpace=wrap;connectable=0;fillColor=none;top=0;left=0;bottom=0;right=0;align=left;spacingLeft=6;overflow=hidden;" vertex="1" parent="gcIj5Uc6wEE0DNO7ib5h-32">
          <mxGeometry x="28" width="132" height="30" as="geometry" />
        </mxCell>
        <mxCell id="gcIj5Uc6wEE0DNO7ib5h-35" value="" style="shape=partialRectangle;html=1;whiteSpace=wrap;collapsible=0;dropTarget=0;pointerEvents=0;fillColor=none;top=0;left=0;bottom=0;right=0;points=[[0,0.5],[1,0.5]];portConstraint=eastwest;" vertex="1" parent="gcIj5Uc6wEE0DNO7ib5h-1">
          <mxGeometry y="170" width="160" height="30" as="geometry" />
        </mxCell>
        <mxCell id="gcIj5Uc6wEE0DNO7ib5h-36" value="" style="shape=partialRectangle;html=1;whiteSpace=wrap;connectable=0;fillColor=none;top=0;left=0;bottom=0;right=0;overflow=hidden;" vertex="1" parent="gcIj5Uc6wEE0DNO7ib5h-35">
          <mxGeometry width="28" height="30" as="geometry" />
        </mxCell>
        <mxCell id="gcIj5Uc6wEE0DNO7ib5h-37" value="email" style="shape=partialRectangle;html=1;whiteSpace=wrap;connectable=0;fillColor=none;top=0;left=0;bottom=0;right=0;align=left;spacingLeft=6;overflow=hidden;" vertex="1" parent="gcIj5Uc6wEE0DNO7ib5h-35">
          <mxGeometry x="28" width="132" height="30" as="geometry" />
        </mxCell>
        <mxCell id="gcIj5Uc6wEE0DNO7ib5h-38" value="" style="shape=partialRectangle;html=1;whiteSpace=wrap;collapsible=0;dropTarget=0;pointerEvents=0;fillColor=none;top=0;left=0;bottom=0;right=0;points=[[0,0.5],[1,0.5]];portConstraint=eastwest;" vertex="1" parent="gcIj5Uc6wEE0DNO7ib5h-1">
          <mxGeometry y="200" width="160" height="30" as="geometry" />
        </mxCell>
        <mxCell id="gcIj5Uc6wEE0DNO7ib5h-39" value="" style="shape=partialRectangle;html=1;whiteSpace=wrap;connectable=0;fillColor=none;top=0;left=0;bottom=0;right=0;overflow=hidden;" vertex="1" parent="gcIj5Uc6wEE0DNO7ib5h-38">
          <mxGeometry width="28" height="30" as="geometry" />
        </mxCell>
        <mxCell id="gcIj5Uc6wEE0DNO7ib5h-40" value="country" style="shape=partialRectangle;html=1;whiteSpace=wrap;connectable=0;fillColor=none;top=0;left=0;bottom=0;right=0;align=left;spacingLeft=6;overflow=hidden;" vertex="1" parent="gcIj5Uc6wEE0DNO7ib5h-38">
          <mxGeometry x="28" width="132" height="30" as="geometry" />
        </mxCell>
        <mxCell id="gcIj5Uc6wEE0DNO7ib5h-41" value="" style="shape=partialRectangle;html=1;whiteSpace=wrap;collapsible=0;dropTarget=0;pointerEvents=0;fillColor=none;top=0;left=0;bottom=0;right=0;points=[[0,0.5],[1,0.5]];portConstraint=eastwest;" vertex="1" parent="gcIj5Uc6wEE0DNO7ib5h-1">
          <mxGeometry y="230" width="160" height="30" as="geometry" />
        </mxCell>
        <mxCell id="gcIj5Uc6wEE0DNO7ib5h-42" value="" style="shape=partialRectangle;html=1;whiteSpace=wrap;connectable=0;fillColor=none;top=0;left=0;bottom=0;right=0;overflow=hidden;" vertex="1" parent="gcIj5Uc6wEE0DNO7ib5h-41">
          <mxGeometry width="28" height="30" as="geometry" />
        </mxCell>
        <mxCell id="gcIj5Uc6wEE0DNO7ib5h-43" value="age_group" style="shape=partialRectangle;html=1;whiteSpace=wrap;connectable=0;fillColor=none;top=0;left=0;bottom=0;right=0;align=left;spacingLeft=6;overflow=hidden;" vertex="1" parent="gcIj5Uc6wEE0DNO7ib5h-41">
          <mxGeometry x="28" width="132" height="30" as="geometry" />
        </mxCell>
        <mxCell id="gcIj5Uc6wEE0DNO7ib5h-69" value="" style="shape=partialRectangle;html=1;whiteSpace=wrap;collapsible=0;dropTarget=0;pointerEvents=0;fillColor=none;top=0;left=0;bottom=0;right=0;points=[[0,0.5],[1,0.5]];portConstraint=eastwest;" vertex="1" parent="gcIj5Uc6wEE0DNO7ib5h-1">
          <mxGeometry y="260" width="160" height="30" as="geometry" />
        </mxCell>
        <mxCell id="gcIj5Uc6wEE0DNO7ib5h-70" value="" style="shape=partialRectangle;html=1;whiteSpace=wrap;connectable=0;fillColor=none;top=0;left=0;bottom=0;right=0;overflow=hidden;" vertex="1" parent="gcIj5Uc6wEE0DNO7ib5h-69">
          <mxGeometry width="28" height="30" as="geometry" />
        </mxCell>
        <mxCell id="gcIj5Uc6wEE0DNO7ib5h-71" value="occupancy" style="shape=partialRectangle;html=1;whiteSpace=wrap;connectable=0;fillColor=none;top=0;left=0;bottom=0;right=0;align=left;spacingLeft=6;overflow=hidden;" vertex="1" parent="gcIj5Uc6wEE0DNO7ib5h-69">
          <mxGeometry x="28" width="132" height="30" as="geometry" />
        </mxCell>
        <mxCell id="gcIj5Uc6wEE0DNO7ib5h-72" value="" style="shape=partialRectangle;html=1;whiteSpace=wrap;collapsible=0;dropTarget=0;pointerEvents=0;fillColor=none;top=0;left=0;bottom=0;right=0;points=[[0,0.5],[1,0.5]];portConstraint=eastwest;" vertex="1" parent="gcIj5Uc6wEE0DNO7ib5h-1">
          <mxGeometry y="290" width="160" height="30" as="geometry" />
        </mxCell>
        <mxCell id="gcIj5Uc6wEE0DNO7ib5h-73" value="" style="shape=partialRectangle;html=1;whiteSpace=wrap;connectable=0;fillColor=none;top=0;left=0;bottom=0;right=0;overflow=hidden;" vertex="1" parent="gcIj5Uc6wEE0DNO7ib5h-72">
          <mxGeometry width="28" height="30" as="geometry" />
        </mxCell>
        <mxCell id="gcIj5Uc6wEE0DNO7ib5h-74" value="available_funds" style="shape=partialRectangle;html=1;whiteSpace=wrap;connectable=0;fillColor=none;top=0;left=0;bottom=0;right=0;align=left;spacingLeft=6;overflow=hidden;" vertex="1" parent="gcIj5Uc6wEE0DNO7ib5h-72">
          <mxGeometry x="28" width="132" height="30" as="geometry" />
        </mxCell>
        <mxCell id="gcIj5Uc6wEE0DNO7ib5h-84" value="Item" style="shape=table;html=1;whiteSpace=wrap;startSize=30;container=1;collapsible=0;childLayout=tableLayout;fixedRows=1;rowLines=0;fontStyle=1;align=center;" vertex="1" parent="WIyWlLk6GJQsqaUBKTNV-1">
          <mxGeometry x="410" y="120" width="180" height="280" as="geometry" />
        </mxCell>
        <mxCell id="gcIj5Uc6wEE0DNO7ib5h-85" value="" style="shape=partialRectangle;html=1;whiteSpace=wrap;collapsible=0;dropTarget=0;pointerEvents=0;fillColor=none;top=0;left=0;bottom=1;right=0;points=[[0,0.5],[1,0.5]];portConstraint=eastwest;" vertex="1" parent="gcIj5Uc6wEE0DNO7ib5h-84">
          <mxGeometry y="30" width="180" height="30" as="geometry" />
        </mxCell>
        <mxCell id="gcIj5Uc6wEE0DNO7ib5h-86" value="" style="shape=partialRectangle;html=1;whiteSpace=wrap;connectable=0;fillColor=none;top=0;left=0;bottom=0;right=0;overflow=hidden;" vertex="1" parent="gcIj5Uc6wEE0DNO7ib5h-85">
          <mxGeometry width="40" height="30" as="geometry" />
        </mxCell>
        <mxCell id="gcIj5Uc6wEE0DNO7ib5h-87" value="item_name" style="shape=partialRectangle;html=1;whiteSpace=wrap;connectable=0;fillColor=none;top=0;left=0;bottom=0;right=0;align=left;spacingLeft=6;overflow=hidden;" vertex="1" parent="gcIj5Uc6wEE0DNO7ib5h-85">
          <mxGeometry x="40" width="140" height="30" as="geometry" />
        </mxCell>
        <mxCell id="gcIj5Uc6wEE0DNO7ib5h-88" value="" style="shape=partialRectangle;html=1;whiteSpace=wrap;collapsible=0;dropTarget=0;pointerEvents=0;fillColor=none;top=0;left=0;bottom=0;right=0;points=[[0,0.5],[1,0.5]];portConstraint=eastwest;" vertex="1" parent="gcIj5Uc6wEE0DNO7ib5h-84">
          <mxGeometry y="60" width="180" height="30" as="geometry" />
        </mxCell>
        <mxCell id="gcIj5Uc6wEE0DNO7ib5h-89" value="" style="shape=partialRectangle;html=1;whiteSpace=wrap;connectable=0;fillColor=none;top=0;left=0;bottom=0;right=0;overflow=hidden;" vertex="1" parent="gcIj5Uc6wEE0DNO7ib5h-88">
          <mxGeometry width="40" height="30" as="geometry" />
        </mxCell>
        <mxCell id="gcIj5Uc6wEE0DNO7ib5h-90" value="item_id" style="shape=partialRectangle;html=1;whiteSpace=wrap;connectable=0;fillColor=none;top=0;left=0;bottom=0;right=0;align=left;spacingLeft=6;overflow=hidden;" vertex="1" parent="gcIj5Uc6wEE0DNO7ib5h-88">
          <mxGeometry x="40" width="140" height="30" as="geometry" />
        </mxCell>
        <mxCell id="gcIj5Uc6wEE0DNO7ib5h-91" value="" style="shape=partialRectangle;html=1;whiteSpace=wrap;collapsible=0;dropTarget=0;pointerEvents=0;fillColor=none;top=0;left=0;bottom=0;right=0;points=[[0,0.5],[1,0.5]];portConstraint=eastwest;" vertex="1" parent="gcIj5Uc6wEE0DNO7ib5h-84">
          <mxGeometry y="90" width="180" height="30" as="geometry" />
        </mxCell>
        <mxCell id="gcIj5Uc6wEE0DNO7ib5h-92" value="" style="shape=partialRectangle;html=1;whiteSpace=wrap;connectable=0;fillColor=none;top=0;left=0;bottom=0;right=0;overflow=hidden;" vertex="1" parent="gcIj5Uc6wEE0DNO7ib5h-91">
          <mxGeometry width="40" height="30" as="geometry" />
        </mxCell>
        <mxCell id="gcIj5Uc6wEE0DNO7ib5h-93" value="category" style="shape=partialRectangle;html=1;whiteSpace=wrap;connectable=0;fillColor=none;top=0;left=0;bottom=0;right=0;align=left;spacingLeft=6;overflow=hidden;" vertex="1" parent="gcIj5Uc6wEE0DNO7ib5h-91">
          <mxGeometry x="40" width="140" height="30" as="geometry" />
        </mxCell>
        <mxCell id="gcIj5Uc6wEE0DNO7ib5h-94" value="" style="shape=partialRectangle;html=1;whiteSpace=wrap;collapsible=0;dropTarget=0;pointerEvents=0;fillColor=none;top=0;left=0;bottom=0;right=0;points=[[0,0.5],[1,0.5]];portConstraint=eastwest;" vertex="1" parent="gcIj5Uc6wEE0DNO7ib5h-84">
          <mxGeometry y="120" width="180" height="30" as="geometry" />
        </mxCell>
        <mxCell id="gcIj5Uc6wEE0DNO7ib5h-95" value="" style="shape=partialRectangle;html=1;whiteSpace=wrap;connectable=0;fillColor=none;top=0;left=0;bottom=0;right=0;overflow=hidden;" vertex="1" parent="gcIj5Uc6wEE0DNO7ib5h-94">
          <mxGeometry width="40" height="30" as="geometry" />
        </mxCell>
        <mxCell id="gcIj5Uc6wEE0DNO7ib5h-96" value="price" style="shape=partialRectangle;html=1;whiteSpace=wrap;connectable=0;fillColor=none;top=0;left=0;bottom=0;right=0;align=left;spacingLeft=6;overflow=hidden;" vertex="1" parent="gcIj5Uc6wEE0DNO7ib5h-94">
          <mxGeometry x="40" width="140" height="30" as="geometry" />
        </mxCell>
        <mxCell id="gcIj5Uc6wEE0DNO7ib5h-97" value="" style="shape=partialRectangle;html=1;whiteSpace=wrap;collapsible=0;dropTarget=0;pointerEvents=0;fillColor=none;top=0;left=0;bottom=0;right=0;points=[[0,0.5],[1,0.5]];portConstraint=eastwest;" vertex="1" parent="gcIj5Uc6wEE0DNO7ib5h-84">
          <mxGeometry y="150" width="180" height="30" as="geometry" />
        </mxCell>
        <mxCell id="gcIj5Uc6wEE0DNO7ib5h-98" value="" style="shape=partialRectangle;html=1;whiteSpace=wrap;connectable=0;fillColor=none;top=0;left=0;bottom=0;right=0;overflow=hidden;" vertex="1" parent="gcIj5Uc6wEE0DNO7ib5h-97">
          <mxGeometry width="40" height="30" as="geometry" />
        </mxCell>
        <mxCell id="gcIj5Uc6wEE0DNO7ib5h-99" value="cost" style="shape=partialRectangle;html=1;whiteSpace=wrap;connectable=0;fillColor=none;top=0;left=0;bottom=0;right=0;align=left;spacingLeft=6;overflow=hidden;" vertex="1" parent="gcIj5Uc6wEE0DNO7ib5h-97">
          <mxGeometry x="40" width="140" height="30" as="geometry" />
        </mxCell>
        <mxCell id="gcIj5Uc6wEE0DNO7ib5h-100" value="" style="shape=partialRectangle;html=1;whiteSpace=wrap;collapsible=0;dropTarget=0;pointerEvents=0;fillColor=none;top=0;left=0;bottom=0;right=0;points=[[0,0.5],[1,0.5]];portConstraint=eastwest;" vertex="1" parent="gcIj5Uc6wEE0DNO7ib5h-84">
          <mxGeometry y="180" width="180" height="30" as="geometry" />
        </mxCell>
        <mxCell id="gcIj5Uc6wEE0DNO7ib5h-101" value="" style="shape=partialRectangle;html=1;whiteSpace=wrap;connectable=0;fillColor=none;top=0;left=0;bottom=0;right=0;overflow=hidden;" vertex="1" parent="gcIj5Uc6wEE0DNO7ib5h-100">
          <mxGeometry width="40" height="30" as="geometry" />
        </mxCell>
        <mxCell id="gcIj5Uc6wEE0DNO7ib5h-102" value="units_available" style="shape=partialRectangle;html=1;whiteSpace=wrap;connectable=0;fillColor=none;top=0;left=0;bottom=0;right=0;align=left;spacingLeft=6;overflow=hidden;" vertex="1" parent="gcIj5Uc6wEE0DNO7ib5h-100">
          <mxGeometry x="40" width="140" height="30" as="geometry" />
        </mxCell>
        <mxCell id="gcIj5Uc6wEE0DNO7ib5h-103" value="" style="shape=partialRectangle;html=1;whiteSpace=wrap;collapsible=0;dropTarget=0;pointerEvents=0;fillColor=none;top=0;left=0;bottom=0;right=0;points=[[0,0.5],[1,0.5]];portConstraint=eastwest;" vertex="1" parent="gcIj5Uc6wEE0DNO7ib5h-84">
          <mxGeometry y="210" width="180" height="30" as="geometry" />
        </mxCell>
        <mxCell id="gcIj5Uc6wEE0DNO7ib5h-104" value="" style="shape=partialRectangle;html=1;whiteSpace=wrap;connectable=0;fillColor=none;top=0;left=0;bottom=0;right=0;overflow=hidden;" vertex="1" parent="gcIj5Uc6wEE0DNO7ib5h-103">
          <mxGeometry width="40" height="30" as="geometry" />
        </mxCell>
        <mxCell id="gcIj5Uc6wEE0DNO7ib5h-105" value="discount_code" style="shape=partialRectangle;html=1;whiteSpace=wrap;connectable=0;fillColor=none;top=0;left=0;bottom=0;right=0;align=left;spacingLeft=6;overflow=hidden;" vertex="1" parent="gcIj5Uc6wEE0DNO7ib5h-103">
          <mxGeometry x="40" width="140" height="30" as="geometry" />
        </mxCell>
        <mxCell id="gcIj5Uc6wEE0DNO7ib5h-106" value="" style="shape=partialRectangle;html=1;whiteSpace=wrap;collapsible=0;dropTarget=0;pointerEvents=0;fillColor=none;top=0;left=0;bottom=0;right=0;points=[[0,0.5],[1,0.5]];portConstraint=eastwest;" vertex="1" parent="gcIj5Uc6wEE0DNO7ib5h-84">
          <mxGeometry y="240" width="180" height="30" as="geometry" />
        </mxCell>
        <mxCell id="gcIj5Uc6wEE0DNO7ib5h-107" value="" style="shape=partialRectangle;html=1;whiteSpace=wrap;connectable=0;fillColor=none;top=0;left=0;bottom=0;right=0;overflow=hidden;" vertex="1" parent="gcIj5Uc6wEE0DNO7ib5h-106">
          <mxGeometry width="40" height="30" as="geometry" />
        </mxCell>
        <mxCell id="gcIj5Uc6wEE0DNO7ib5h-108" value="discount_amount" style="shape=partialRectangle;html=1;whiteSpace=wrap;connectable=0;fillColor=none;top=0;left=0;bottom=0;right=0;align=left;spacingLeft=6;overflow=hidden;" vertex="1" parent="gcIj5Uc6wEE0DNO7ib5h-106">
          <mxGeometry x="40" width="140" height="30" as="geometry" />
        </mxCell>
        <mxCell id="gcIj5Uc6wEE0DNO7ib5h-109" style="edgeStyle=orthogonalEdgeStyle;rounded=0;orthogonalLoop=1;jettySize=auto;html=1;exitX=1;exitY=0.5;exitDx=0;exitDy=0;" edge="1" parent="WIyWlLk6GJQsqaUBKTNV-1" source="gcIj5Uc6wEE0DNO7ib5h-5" target="gcIj5Uc6wEE0DNO7ib5h-88">
          <mxGeometry relative="1" as="geometry" />
        </mxCell>
        <mxCell id="gcIj5Uc6wEE0DNO7ib5h-110" value="Transaction" style="shape=table;html=1;whiteSpace=wrap;startSize=30;container=1;collapsible=0;childLayout=tableLayout;fixedRows=1;rowLines=0;fontStyle=1;align=center;" vertex="1" parent="WIyWlLk6GJQsqaUBKTNV-1">
          <mxGeometry x="280" y="440" width="180" height="300" as="geometry" />
        </mxCell>
        <mxCell id="gcIj5Uc6wEE0DNO7ib5h-111" value="" style="shape=partialRectangle;html=1;whiteSpace=wrap;collapsible=0;dropTarget=0;pointerEvents=0;fillColor=none;top=0;left=0;bottom=1;right=0;points=[[0,0.5],[1,0.5]];portConstraint=eastwest;" vertex="1" parent="gcIj5Uc6wEE0DNO7ib5h-110">
          <mxGeometry y="30" width="180" height="30" as="geometry" />
        </mxCell>
        <mxCell id="gcIj5Uc6wEE0DNO7ib5h-112" value="" style="shape=partialRectangle;html=1;whiteSpace=wrap;connectable=0;fillColor=none;top=0;left=0;bottom=0;right=0;overflow=hidden;" vertex="1" parent="gcIj5Uc6wEE0DNO7ib5h-111">
          <mxGeometry width="40" height="30" as="geometry" />
        </mxCell>
        <mxCell id="gcIj5Uc6wEE0DNO7ib5h-113" value="transaction_id" style="shape=partialRectangle;html=1;whiteSpace=wrap;connectable=0;fillColor=none;top=0;left=0;bottom=0;right=0;align=left;spacingLeft=6;overflow=hidden;" vertex="1" parent="gcIj5Uc6wEE0DNO7ib5h-111">
          <mxGeometry x="40" width="140" height="30" as="geometry" />
        </mxCell>
        <mxCell id="gcIj5Uc6wEE0DNO7ib5h-114" value="" style="shape=partialRectangle;html=1;whiteSpace=wrap;collapsible=0;dropTarget=0;pointerEvents=0;fillColor=none;top=0;left=0;bottom=0;right=0;points=[[0,0.5],[1,0.5]];portConstraint=eastwest;" vertex="1" parent="gcIj5Uc6wEE0DNO7ib5h-110">
          <mxGeometry y="60" width="180" height="30" as="geometry" />
        </mxCell>
        <mxCell id="gcIj5Uc6wEE0DNO7ib5h-115" value="" style="shape=partialRectangle;html=1;whiteSpace=wrap;connectable=0;fillColor=none;top=0;left=0;bottom=0;right=0;overflow=hidden;" vertex="1" parent="gcIj5Uc6wEE0DNO7ib5h-114">
          <mxGeometry width="40" height="30" as="geometry" />
        </mxCell>
        <mxCell id="gcIj5Uc6wEE0DNO7ib5h-116" value="date_of_transaction" style="shape=partialRectangle;html=1;whiteSpace=wrap;connectable=0;fillColor=none;top=0;left=0;bottom=0;right=0;align=left;spacingLeft=6;overflow=hidden;" vertex="1" parent="gcIj5Uc6wEE0DNO7ib5h-114">
          <mxGeometry x="40" width="140" height="30" as="geometry" />
        </mxCell>
        <mxCell id="gcIj5Uc6wEE0DNO7ib5h-117" value="" style="shape=partialRectangle;html=1;whiteSpace=wrap;collapsible=0;dropTarget=0;pointerEvents=0;fillColor=none;top=0;left=0;bottom=0;right=0;points=[[0,0.5],[1,0.5]];portConstraint=eastwest;" vertex="1" parent="gcIj5Uc6wEE0DNO7ib5h-110">
          <mxGeometry y="90" width="180" height="30" as="geometry" />
        </mxCell>
        <mxCell id="gcIj5Uc6wEE0DNO7ib5h-118" value="" style="shape=partialRectangle;html=1;whiteSpace=wrap;connectable=0;fillColor=none;top=0;left=0;bottom=0;right=0;overflow=hidden;" vertex="1" parent="gcIj5Uc6wEE0DNO7ib5h-117">
          <mxGeometry width="40" height="30" as="geometry" />
        </mxCell>
        <mxCell id="gcIj5Uc6wEE0DNO7ib5h-119" value="cost_id" style="shape=partialRectangle;html=1;whiteSpace=wrap;connectable=0;fillColor=none;top=0;left=0;bottom=0;right=0;align=left;spacingLeft=6;overflow=hidden;" vertex="1" parent="gcIj5Uc6wEE0DNO7ib5h-117">
          <mxGeometry x="40" width="140" height="30" as="geometry" />
        </mxCell>
        <mxCell id="gcIj5Uc6wEE0DNO7ib5h-120" value="" style="shape=partialRectangle;html=1;whiteSpace=wrap;collapsible=0;dropTarget=0;pointerEvents=0;fillColor=none;top=0;left=0;bottom=0;right=0;points=[[0,0.5],[1,0.5]];portConstraint=eastwest;" vertex="1" parent="gcIj5Uc6wEE0DNO7ib5h-110">
          <mxGeometry y="120" width="180" height="30" as="geometry" />
        </mxCell>
        <mxCell id="gcIj5Uc6wEE0DNO7ib5h-121" value="" style="shape=partialRectangle;html=1;whiteSpace=wrap;connectable=0;fillColor=none;top=0;left=0;bottom=0;right=0;overflow=hidden;" vertex="1" parent="gcIj5Uc6wEE0DNO7ib5h-120">
          <mxGeometry width="40" height="30" as="geometry" />
        </mxCell>
        <mxCell id="gcIj5Uc6wEE0DNO7ib5h-122" value="item_id" style="shape=partialRectangle;html=1;whiteSpace=wrap;connectable=0;fillColor=none;top=0;left=0;bottom=0;right=0;align=left;spacingLeft=6;overflow=hidden;" vertex="1" parent="gcIj5Uc6wEE0DNO7ib5h-120">
          <mxGeometry x="40" width="140" height="30" as="geometry" />
        </mxCell>
        <mxCell id="gcIj5Uc6wEE0DNO7ib5h-123" value="" style="shape=partialRectangle;html=1;whiteSpace=wrap;collapsible=0;dropTarget=0;pointerEvents=0;fillColor=none;top=0;left=0;bottom=0;right=0;points=[[0,0.5],[1,0.5]];portConstraint=eastwest;" vertex="1" parent="gcIj5Uc6wEE0DNO7ib5h-110">
          <mxGeometry y="150" width="180" height="30" as="geometry" />
        </mxCell>
        <mxCell id="gcIj5Uc6wEE0DNO7ib5h-124" value="" style="shape=partialRectangle;html=1;whiteSpace=wrap;connectable=0;fillColor=none;top=0;left=0;bottom=0;right=0;overflow=hidden;" vertex="1" parent="gcIj5Uc6wEE0DNO7ib5h-123">
          <mxGeometry width="40" height="30" as="geometry" />
        </mxCell>
        <mxCell id="gcIj5Uc6wEE0DNO7ib5h-125" value="return" style="shape=partialRectangle;html=1;whiteSpace=wrap;connectable=0;fillColor=none;top=0;left=0;bottom=0;right=0;align=left;spacingLeft=6;overflow=hidden;" vertex="1" parent="gcIj5Uc6wEE0DNO7ib5h-123">
          <mxGeometry x="40" width="140" height="30" as="geometry" />
        </mxCell>
        <mxCell id="gcIj5Uc6wEE0DNO7ib5h-126" value="" style="shape=partialRectangle;html=1;whiteSpace=wrap;collapsible=0;dropTarget=0;pointerEvents=0;fillColor=none;top=0;left=0;bottom=0;right=0;points=[[0,0.5],[1,0.5]];portConstraint=eastwest;" vertex="1" parent="gcIj5Uc6wEE0DNO7ib5h-110">
          <mxGeometry y="180" width="180" height="30" as="geometry" />
        </mxCell>
        <mxCell id="gcIj5Uc6wEE0DNO7ib5h-127" value="" style="shape=partialRectangle;html=1;whiteSpace=wrap;connectable=0;fillColor=none;top=0;left=0;bottom=0;right=0;overflow=hidden;" vertex="1" parent="gcIj5Uc6wEE0DNO7ib5h-126">
          <mxGeometry width="40" height="30" as="geometry" />
        </mxCell>
        <mxCell id="gcIj5Uc6wEE0DNO7ib5h-128" value="amount" style="shape=partialRectangle;html=1;whiteSpace=wrap;connectable=0;fillColor=none;top=0;left=0;bottom=0;right=0;align=left;spacingLeft=6;overflow=hidden;" vertex="1" parent="gcIj5Uc6wEE0DNO7ib5h-126">
          <mxGeometry x="40" width="140" height="30" as="geometry" />
        </mxCell>
        <mxCell id="gcIj5Uc6wEE0DNO7ib5h-129" value="" style="shape=partialRectangle;html=1;whiteSpace=wrap;collapsible=0;dropTarget=0;pointerEvents=0;fillColor=none;top=0;left=0;bottom=0;right=0;points=[[0,0.5],[1,0.5]];portConstraint=eastwest;" vertex="1" parent="gcIj5Uc6wEE0DNO7ib5h-110">
          <mxGeometry y="210" width="180" height="30" as="geometry" />
        </mxCell>
        <mxCell id="gcIj5Uc6wEE0DNO7ib5h-130" value="" style="shape=partialRectangle;html=1;whiteSpace=wrap;connectable=0;fillColor=none;top=0;left=0;bottom=0;right=0;overflow=hidden;" vertex="1" parent="gcIj5Uc6wEE0DNO7ib5h-129">
          <mxGeometry width="40" height="30" as="geometry" />
        </mxCell>
        <mxCell id="gcIj5Uc6wEE0DNO7ib5h-131" value="total_price" style="shape=partialRectangle;html=1;whiteSpace=wrap;connectable=0;fillColor=none;top=0;left=0;bottom=0;right=0;align=left;spacingLeft=6;overflow=hidden;" vertex="1" parent="gcIj5Uc6wEE0DNO7ib5h-129">
          <mxGeometry x="40" width="140" height="30" as="geometry" />
        </mxCell>
        <mxCell id="gcIj5Uc6wEE0DNO7ib5h-154" value="" style="shape=partialRectangle;html=1;whiteSpace=wrap;collapsible=0;dropTarget=0;pointerEvents=0;fillColor=none;top=0;left=0;bottom=0;right=0;points=[[0,0.5],[1,0.5]];portConstraint=eastwest;" vertex="1" parent="gcIj5Uc6wEE0DNO7ib5h-110">
          <mxGeometry y="240" width="180" height="30" as="geometry" />
        </mxCell>
        <mxCell id="gcIj5Uc6wEE0DNO7ib5h-155" value="" style="shape=partialRectangle;html=1;whiteSpace=wrap;connectable=0;fillColor=none;top=0;left=0;bottom=0;right=0;overflow=hidden;" vertex="1" parent="gcIj5Uc6wEE0DNO7ib5h-154">
          <mxGeometry width="40" height="30" as="geometry" />
        </mxCell>
        <mxCell id="gcIj5Uc6wEE0DNO7ib5h-156" value="discount_code" style="shape=partialRectangle;html=1;whiteSpace=wrap;connectable=0;fillColor=none;top=0;left=0;bottom=0;right=0;align=left;spacingLeft=6;overflow=hidden;" vertex="1" parent="gcIj5Uc6wEE0DNO7ib5h-154">
          <mxGeometry x="40" width="140" height="30" as="geometry" />
        </mxCell>
        <mxCell id="gcIj5Uc6wEE0DNO7ib5h-157" value="" style="shape=partialRectangle;html=1;whiteSpace=wrap;collapsible=0;dropTarget=0;pointerEvents=0;fillColor=none;top=0;left=0;bottom=0;right=0;points=[[0,0.5],[1,0.5]];portConstraint=eastwest;" vertex="1" parent="gcIj5Uc6wEE0DNO7ib5h-110">
          <mxGeometry y="270" width="180" height="30" as="geometry" />
        </mxCell>
        <mxCell id="gcIj5Uc6wEE0DNO7ib5h-158" value="" style="shape=partialRectangle;html=1;whiteSpace=wrap;connectable=0;fillColor=none;top=0;left=0;bottom=0;right=0;overflow=hidden;" vertex="1" parent="gcIj5Uc6wEE0DNO7ib5h-157">
          <mxGeometry width="40" height="30" as="geometry" />
        </mxCell>
        <mxCell id="gcIj5Uc6wEE0DNO7ib5h-159" value="status" style="shape=partialRectangle;html=1;whiteSpace=wrap;connectable=0;fillColor=none;top=0;left=0;bottom=0;right=0;align=left;spacingLeft=6;overflow=hidden;" vertex="1" parent="gcIj5Uc6wEE0DNO7ib5h-157">
          <mxGeometry x="40" width="140" height="30" as="geometry" />
        </mxCell>
      </root>
    </mxGraphModel>
  </diagram>
</mxfile>
